name rise49.5252peak65.1548fall88.8305.mot
datacolumns 19
datarows 15
range 9.27996100000000 9.30328900000000
endheader
time	ground_force1_vx	ground_force1_vy	ground_force1_vz	ground_force1_px	ground_force1_py	ground_force1_pz	ground_force2_vx	ground_force2_vy	ground_force2_vz	ground_force2_px	ground_force2_py	ground_force2_pz	ground_torque1_x	ground_torque1_y	ground_torque1_z	ground_torque2_x	ground_torque2_y	ground_torque2_z	
9.27996100000000	-61.05010300000000	838.05739700000004	63.36111300000000	0.18291700000000	0.00000000000000	0.12753800000000	0.00000000000000	0.00000000000000	0.00000000000000	0.00000000000000	0.00000000000000	0.00000000000000	0.00000000000000	38.10537100000000	0.00000000000000	0.00000000000000	0.00000000000000	0.00000000000000	
9.28162600000000	-61.32853500000000	836.41719499999999	63.21752500000000	0.18231500000000	0.00000000000000	0.12746300000000	0.00000000000000	0.00000000000000	0.00000000000000	0.00000000000000	0.00000000000000	0.00000000000000	0.00000000000000	38.00994800000000	0.00000000000000	0.00000000000000	0.00000000000000	0.00000000000000	
9.28329400000000	-61.61585100000000	834.62072400000000	63.04790100000000	0.18170100000000	0.00000000000000	0.12738700000000	0.00000000000000	0.00000000000000	0.00000000000000	0.00000000000000	0.00000000000000	0.00000000000000	0.00000000000000	37.90781800000000	0.00000000000000	0.00000000000000	0.00000000000000	0.00000000000000	
9.28495900000000	-61.91242100000000	832.66626499999995	62.85176600000000	0.18107400000000	0.00000000000000	0.12730800000000	-2.11090800000000	3.62710800000000	1.46880000000000	0.00000000000000	0.00000000000000	0.00000000000000	0.00000000000000	37.79905900000000	0.00000000000000	0.00000000000000	0.63250500000000	0.00000000000000	
9.28662400000000	-62.21853700000000	830.55214200000000	62.62868200000000	0.18043500000000	0.00000000000000	0.12722700000000	-3.43031700000000	7.02434000000000	2.50749100000000	0.00000000000000	0.00000000000000	0.00000000000000	0.00000000000000	37.68375100000000	0.00000000000000	0.00000000000000	1.07814000000000	0.00000000000000	
9.28829100000000	-62.53441500000000	828.27672900000005	62.37824800000000	0.17978300000000	0.00000000000000	0.12714400000000	-4.93382500000000	11.13529100000000	3.71563300000000	0.00000000000000	0.00000000000000	0.00000000000000	0.00000000000000	37.56197400000000	0.00000000000000	0.00000000000000	1.59643300000000	0.00000000000000	
9.28995600000000	-62.86019000000000	825.83844799999997	62.10010400000000	0.17912000000000	0.00000000000000	0.12705900000000	-6.57917500000000	15.91850500000000	5.06653100000000	0.00000000000000	0.00000000000000	0.00000000000000	0.00000000000000	37.43380500000000	0.00000000000000	0.00000000000000	2.17599300000000	0.00000000000000	
9.29163000000000	-63.19591500000000	823.23577000000000	61.79392900000000	0.17844400000000	0.00000000000000	0.12697100000000	-8.31265700000000	21.30145000000000	6.52415800000000	0.00000000000000	0.00000000000000	0.00000000000000	0.00000000000000	37.29932100000000	0.00000000000000	0.00000000000000	2.80146500000000	0.00000000000000	
9.29328900000000	-63.54155800000000	820.46721800000000	61.45944900000000	0.17775700000000	0.00000000000000	0.12688000000000	-10.07263300000000	27.18608500000000	8.04554700000000	0.39492500000000	0.00000000000000	-0.04505800000000	0.00000000000000	37.15859500000000	0.00000000000000	0.00000000000000	6.17809200000000	0.00000000000000	
9.29496000000000	-63.89700400000000	817.53137100000004	61.09643200000000	0.17705900000000	0.00000000000000	0.12678700000000	-11.79404400000000	33.45720500000000	9.58399600000000	0.39821700000000	0.00000000000000	-0.04609400000000	0.00000000000000	37.01169700000000	0.00000000000000	0.00000000000000	7.38829000000000	0.00000000000000	
9.29662700000000	-64.26205100000000	814.42686100000003	60.70469300000000	0.17635000000000	0.00000000000000	0.12669100000000	-13.41332300000000	39.99245600000000	11.09266000000000	0.40118500000000	0.00000000000000	-0.04704300000000	0.00000000000000	36.85869600000000	0.00000000000000	0.00000000000000	8.58338100000000	0.00000000000000	
9.29829600000000	-64.63640800000000	811.15238399999998	60.28409700000000	0.17563200000000	0.00000000000000	0.12659300000000	-14.87304100000000	46.67258900000000	12.52803500000000	0.40388800000000	0.00000000000000	-0.04791600000000	0.00000000000000	36.69965300000000	0.00000000000000	0.00000000000000	9.72972600000000	0.00000000000000	
9.29995600000000	-65.01969900000000	807.70669499999997	59.83455500000000	0.17490400000000	0.00000000000000	0.12649200000000	-16.12569400000000	53.39059600000000	13.85290100000000	0.40637700000000	0.00000000000000	-0.04872400000000	0.00000000000000	36.53462700000000	0.00000000000000	0.00000000000000	10.79839100000000	0.00000000000000	
9.30162500000000	-65.41146000000001	804.08861800000000	59.35603200000000	0.17416700000000	0.00000000000000	0.12638800000000	-17.13625700000000	60.05873900000000	15.03840100000000	0.40869000000000	0.00000000000000	-0.04947400000000	0.00000000000000	36.36367000000000	0.00000000000000	0.00000000000000	11.76679300000000	0.00000000000000	
9.30328900000000	-65.81113800000000	800.29704500000003	58.84854300000000	0.17342200000000	0.00000000000000	0.12628100000000	-17.88337700000000	66.61300400000000	16.06516200000000	0.41085900000000	0.00000000000000	-0.05017400000000	0.00000000000000	36.18682900000000	0.00000000000000	0.00000000000000	12.61959400000000	0.00000000000000	
